<?xml version="1.0" encoding="UTF-8" standalone="no"?>
<svg
   xmlns:dc="http://purl.org/dc/elements/1.1/"
   xmlns:cc="http://creativecommons.org/ns#"
   xmlns:rdf="http://www.w3.org/1999/02/22-rdf-syntax-ns#"
   xmlns:svg="http://www.w3.org/2000/svg"
   xmlns="http://www.w3.org/2000/svg"
   xmlns:sodipodi="http://sodipodi.sourceforge.net/DTD/sodipodi-0.dtd"
   xmlns:inkscape="http://www.inkscape.org/namespaces/inkscape"
   width="20"
   height="20"
   viewBox="0 0 20 20"
   version="1.1"
   id="svg6"
   sodipodi:docname="settings.svg"
   inkscape:version="0.92.4 (33fec40, 2019-01-16)">
  <metadata
     id="metadata12">
    <rdf:RDF>
      <cc:Work
         rdf:about="">
        <dc:format>image/svg+xml</dc:format>
        <dc:type
           rdf:resource="http://purl.org/dc/dcmitype/StillImage" />
        <dc:title />
      </cc:Work>
    </rdf:RDF>
  </metadata>
  <defs
     id="defs10" />
  <sodipodi:namedview
     pagecolor="#ffffff"
     bordercolor="#666666"
     borderopacity="1"
     objecttolerance="10"
     gridtolerance="10"
     guidetolerance="10"
     inkscape:pageopacity="0"
     inkscape:pageshadow="2"
     inkscape:window-width="1920"
     inkscape:window-height="1016"
     id="namedview8"
     showgrid="false"
     inkscape:zoom="11.8"
     inkscape:cx="-17.79661"
     inkscape:cy="10"
     inkscape:window-x="0"
     inkscape:window-y="27"
     inkscape:window-maximized="1"
     inkscape:current-layer="svg6" />
  <path
     fill="none"
     d="M0 0h20v20H0V0z"
     id="path2" />
  <path
     d="M15.95 10.78c.03-.25.05-.51.05-.78s-.02-.53-.06-.78l1.69-1.32c.15-.12.19-.34.1-.51l-1.6-2.77c-.1-.18-.31-.24-.49-.18l-1.99.8c-.42-.32-.86-.58-1.35-.78L12 2.34c-.03-.2-.2-.34-.4-.34H8.4c-.2 0-.36.14-.39.34l-.3 2.12c-.49.2-.94.47-1.35.78l-1.99-.8c-.18-.07-.39 0-.49.18l-1.6 2.77c-.1.18-.06.39.1.51l1.69 1.32c-.04.25-.07.52-.07.78s.02.53.06.78L2.37 12.1c-.15.12-.19.34-.1.51l1.6 2.77c.1.18.31.24.49.18l1.99-.8c.42.32.86.58 1.35.78l.3 2.12c.04.2.2.34.4.34h3.2c.2 0 .37-.14.39-.34l.3-2.12c.49-.2.94-.47 1.35-.78l1.99.8c.18.07.39 0 .49-.18l1.6-2.77c.1-.18.06-.39-.1-.51l-1.67-1.32zM10 13c-1.65 0-3-1.35-3-3s1.35-3 3-3 3 1.35 3 3-1.35 3-3 3z"
     id="path4"
     style="fill:#ffffff;fill-opacity:1" />
</svg>
